PathFileType	4	(X/Y/Z)	Kaydara																																																																																																																									
DataRate	CameraRate	NumFrames	NumMarkers	Units	OrigDataRate	OrigDataStartFrame	OrigNumFrames																																																																																																																					
30	30	5	41	mm	30	49	195																																																																																																																					
Frame#	Time	NABA_LFHD			NABA_RFHD			NABA_LBHD			NABA_RBHD			NABA_LFTShould			NABA_RFTShould			NABA_LRRShould			NABA_RRRShould			NABA_T10			NABA_STRN			NABA_TRUN			NABA_LSHO			NABA_LUPA			NABA_LELB			NABA_LFRM			NABA_LWRA			NABA_LWRB			NABA_LFIN			NABA_RSHO			NABA_RUPA			NABA_RELB			NABA_RFRM			NABA_RWRA			NABA_RWRB			NABA_RFIN			NABA_LFWT			NABA_RFWT			NABA_LBWT			NABA_RBWT			NABA_LTHI			NABA_LKNE			NABA_LSHN			NABA_LANK			NABA_LHEE			NABA_LTOE			NABA_RTHI			NABA_RKNE			NABA_RSHN			NABA_RANK			NABA_RHEE			NABA_RTOE		
		X1	Y1	Z1	X2	Y2	Z2	X3	Y3	Z3	X4	Y4	Z4	X5	Y5	Z5	X6	Y6	Z6	X7	Y7	Z7	X8	Y8	Z8	X9	Y9	Z9	X10	Y10	Z10	X11	Y11	Z11	X12	Y12	Z12	X13	Y13	Z13	X14	Y14	Z14	X15	Y15	Z15	X16	Y16	Z16	X17	Y17	Z17	X18	Y18	Z18	X19	Y19	Z19	X20	Y20	Z20	X21	Y21	Z21	X22	Y22	Z22	X23	Y23	Z23	X24	Y24	Z24	X25	Y25	Z25	X26	Y26	Z26	X27	Y27	Z27	X28	Y28	Z28	X29	Y29	Z29	X30	Y30	Z30	X31	Y31	Z31	X32	Y32	Z32	X33	Y33	Z33	X34	Y34	Z34	X35	Y35	Z35	X36	Y36	Z36	X37	Y37	Z37	X38	Y38	Z38	X39	Y39	Z39	X40	Y40	Z40	X41	Y41	Z41
																																																																																																																												
49	1.61	243.0821	1614.61273	-1887.14401	73.03432	1591.47888	-1860.76813	254.34761	1594.93225	-2011.62628	38.78864	1582.25388	-1955.93231	230.81268	1341.21613	-1922.30331	96.50768	1334.74319	-1916.50803	228.58725	1390.90469	-2045.1889	79.70937	1386.49719	-2029.38629	164.07711	1222.36511	-2099.25095	167.06121	1287.48352	-1868.87558	171.25546	1192.61795	-1815.26993	323.74718	1363.32565	-1979.03488	382.81528	1129.73679	-2004.53537	391.32805	1039.31984	-1977.72964	382.66129	963.44864	-1998.65189	328.90919	818.44414	-1918.19901	400.95028	818.97003	-1919.74426	378.80348	761.32805	-1874.63623	2.88303	1355.33554	-1959.00391	-46.91224	1150.98282	-2019.6608	-63.44662	1026.83388	-1971.56876	-63.32215	931.81229	-1961.54648	10.96778	812.60063	-1887.03339	-63.40863	798.51425	-1882.12601	-41.47938	762.2982	-1849.30695	296.48645	948.83255	-1911.33942	29.22064	947.69974	-1909.74976	244.83183	1016.95572	-2077.10983	77.89504	1031.26076	-2079.98901	297.69699	657.49405	-2060.90118	295.24714	504.46407	-2012.85675	245.22835	307.49292	-2003.76984	273.94543	160.09628	-2079.34845	216.70095	112.80936	-2134.64355	235.61005	80.70284	-1959.85779	29.01506	672.03079	-2063.60718	45.00673	503.72375	-1961.09131	54.41669	331.45134	-1994.77249	44.79577	143.36041	-2070.05249	89.83324	100.34933	-2140.68604	67.80623	82.48948	-1962.56989
50	1.643	243.29964	1614.35043	-1885.54611	73.51678	1591.21033	-1859.17679	254.69595	1594.74686	-2010.13168	39.08937	1582.00058	-1954.48685	231.0841	1340.86639	-1920.93369	96.83906	1334.49966	-1915.04318	228.98153	1390.78735	-2043.7709	80.11828	1386.43707	-2027.99118	164.29449	1222.31514	-2098.07327	167.25317	1287.10861	-1867.64786	171.41327	1192.19734	-1814.17526	324.58012	1362.57904	-1974.75677	382.93236	1129.46701	-2003.58658	391.35715	1038.97652	-1976.86691	382.62718	963.09875	-1997.87842	328.52692	818.16757	-1917.43973	400.65792	818.52592	-1919.11606	378.41541	760.87273	-1874.08142	3.18397	1355.215	-1957.61154	-46.67464	1151.00662	-2018.64014	-63.3547	1026.86195	-1970.79895	-63.18377	931.77376	-1960.79178	11.20318	812.3616	-1886.44501	-63.28884	798.3313	-1881.57196	-41.43668	762.03766	-1848.85666	296.38405	948.4346	-1910.34302	29.19671	947.47025	-1909.12216	244.89998	1016.86447	-2076.15799	78.0281	1031.33713	-2079.06631	297.86684	657.22588	-2060.01312	295.30853	504.27242	-2012.03278	245.11288	307.18307	-2003.15002	273.92183	159.96815	-2079.25415	216.77465	112.71104	-2134.6405	235.54518	80.73253	-1959.95178	28.85063	672.0826	-2063.41965	44.93905	503.7167	-1961.16516	54.27294	331.44344	-1994.85031	44.69154	143.34005	-2070.18585	89.74382	100.20947	-2140.79117	67.77264	82.51445	-1962.63397
51	1.677	243.72952	1614.07379	-1883.86444	73.81957	1590.9166	-1857.50977	255.12377	1594.3927	-2008.34915	39.45864	1581.72028	-1952.80014	231.39055	1340.43381	-1919.28085	97.2367	1334.5433	-1913.51913	229.40727	1390.56427	-2042.11594	80.5497	1386.21414	-2026.27975	164.59698	1222.14294	-2096.55762	167.55264	1286.69312	-1866.28662	171.66376	1191.60446	-1812.80716	324.76501	1362.58026	-1975.40253	383.04531	1129.03099	-2002.4231	391.3662	1038.44765	-1975.89859	382.52617	962.61917	-1997.05856	328.27106	817.63123	-1916.94519	400.33539	817.86179	-1918.46024	378.08239	760.27786	-1873.60138	3.55834	1354.99054	-1955.94162	-46.40168	1150.90935	-2017.39975	-63.1946	1026.73897	-1969.82697	-63.0072	931.61781	-1959.99283	11.2752	811.94916	-1885.77011	-63.1705	797.99332	-1880.92834	-41.39141	761.65169	-1848.31238	296.3566	947.96028	-1909.62067	29.10275	947.1051	-1908.01743	245.10586	1016.6861	-2075.15594	78.21975	1031.38969	-2077.96249	298.15994	656.75056	-2058.86505	295.30441	503.93593	-2010.77652	244.90255	306.67143	-2002.35657	273.88288	159.74316	-2078.83347	216.86647	112.55635	-2134.59991	235.39837	80.72765	-1960.02167	28.6459	672.09236	-2063.06564	44.95235	503.61389	-1961.2355	54.1073	331.32072	-1994.86099	44.60928	143.28555	-2070.31403	89.6034	100.07398	-2140.89813	67.72774	82.50867	-1962.72049
52	1.71	244.25426	1613.63556	-1881.78192	74.37358	1590.56503	-1855.47073	255.62412	1593.88153	-2006.26083	39.9791	1581.3504	-1950.81085	231.96255	1340.00519	-1917.27524	96.71236	1333.98117	-1912.54364	229.93511	1390.26703	-2040.08484	81.10478	1385.93811	-2024.22943	165.12177	1221.91208	-2094.67117	167.94321	1286.06415	-1864.44168	172.02303	1190.97183	-1811.08383	325.60009	1361.90247	-1972.27936	383.17921	1128.46512	-2001.06125	391.38298	1037.81143	-1974.71924	382.43092	962.05582	-1996.03607	327.96455	816.8782	-1916.16104	400.04814	817.09541	-1917.75528	377.69783	759.41574	-1872.98798	4.07963	1354.56848	-1953.90594	-45.97743	1150.81314	-2015.97458	-62.88419	1026.45531	-1968.59512	-62.80466	931.33499	-1958.94913	11.40919	811.57402	-1884.82315	-63.09226	797.57645	-1880.20416	-41.34535	761.15662	-1847.61078	296.49292	947.37442	-1908.24432	29.28282	946.7424	-1907.1579	245.40379	1016.51054	-2073.72604	78.6476	1031.43143	-2076.63696	298.3675	656.27693	-2057.68997	295.22938	503.47908	-2009.50211	244.46264	306.1536	-2001.44562	273.60479	159.4216	-2078.18573	216.92797	112.41224	-2134.54803	235.20359	80.77181	-1960.02228	28.41126	672.03888	-2062.4971	44.93017	503.52032	-1960.99518	53.77356	331.12392	-1994.59137	44.44041	143.26779	-2070.35843	89.27862	99.87402	-2140.97321	67.63186	82.51284	-1962.78229
53	1.743	245.012	1613.11295	-1879.49081	75.16525	1590.05127	-1853.01559	256.34415	1593.22433	-2003.96149	40.72679	1580.69061	-1948.32062	232.60862	1339.39285	-1914.83093	98.24981	1333.48389	-1909.16977	230.71142	1389.78485	-2037.6387	81.92887	1385.37155	-2021.81107	165.91074	1221.45874	-2092.40021	168.641	1285.43518	-1861.91605	172.60077	1190.19966	-1808.95859	326.34785	1361.23718	-1969.60876	383.46054	1127.86781	-1999.41376	391.61312	1037.16171	-1973.37509	382.40082	961.45866	-1994.85016	327.98771	816.03958	-1915.77393	399.82964	816.26862	-1917.09122	377.38499	758.44803	-1872.41745	4.83053	1353.97125	-1951.58951	-45.24929	1150.56976	-2014.22134	-62.55677	1026.07849	-1967.17926	-62.64182	930.95886	-1957.78152	11.32893	811.03867	-1883.89938	-63.13048	797.03011	-1879.24835	-41.36148	760.49255	-1846.74149	296.53547	946.09322	-1906.65573	29.55687	946.21979	-1905.82184	246.10018	1016.24344	-2071.87424	79.4994	1031.58241	-2074.86191	298.91441	655.30167	-2055.96161	294.89115	502.60456	-2007.27585	243.28112	305.21236	-2000.0415	273.085	158.63649	-2077.0546	216.86863	112.1028	-2134.40994	234.69711	80.78839	-1960.05737	28.07274	671.89407	-2061.62399	44.9295	503.33591	-1960.19653	53.6308	330.80379	-1994.04922	44.33833	143.13041	-2070.32669	88.91171	99.78851	-2141.05606	67.60509	82.48251	-1962.91061
